<?xml version="1.0" encoding="utf-8"?>
<!-- Generator: Adobe Illustrator 19.2.1, SVG Export Plug-In . SVG Version: 6.00 Build 0)  -->
<svg version="1.1" id="Layer_1" xmlns="http://www.w3.org/2000/svg" xmlns:xlink="http://www.w3.org/1999/xlink" x="0px" y="0px"
	 viewBox="0 0 42 42" style="enable-background:new 0 0 42 42;" xml:space="preserve">
<style type="text/css">
	.st0{fill:#989898;}
</style>
<path class="st0" d="M0,0v42h42V0H0z M29.5,16.4c-0.1-1.2-0.3-2.1-0.6-2.8c-0.2-0.7-0.6-1.3-1-1.7s-1-0.7-1.6-0.8
	c-0.7-0.1-1.5-0.2-2.5-0.2h-1.3v20.2H26v1.3H16v-1.3h3.4V10.9h-1.2c-0.7,0-1.3,0-1.8,0.1c-0.5,0.1-1,0.2-1.4,0.3
	c-0.4,0.1-0.7,0.3-1,0.6c-0.3,0.3-0.5,0.6-0.7,1c-0.2,0.4-0.4,0.9-0.5,1.5c-0.1,0.6-0.3,1.3-0.4,2h-1.1l0.5-6.7h18.3l0.4,6.7H29.5z"
	/>
</svg>
